<svg version="1.1" id="Layer_1" xmlns="http://www.w3.org/2000/svg" xmlns:xlink="http://www.w3.org/1999/xlink" x="0px" y="0px"
	 width="100%" viewBox="0 0 496 496" enable-background="new 0 0 496 496" xml:space="preserve">
<path fill="#000000" opacity="1.000000" stroke="none" 
	d="
M265.189301,337.418732 
	C222.720825,343.923248 184.190552,321.088104 169.400452,282.947876 
	C153.321518,241.484055 170.031525,196.281326 207.449234,174.986084 
	C258.636963,145.854004 325.297546,173.308487 336.892517,233.947815 
	C346.888000,286.222321 313.319366,327.111206 269.099426,336.946350 
	C267.967926,337.198029 266.789215,337.237701 265.189301,337.418732 
M228.608704,242.504272 
	C222.808563,246.548141 216.125122,248.997314 209.812561,252.568390 
	C211.048309,255.841263 213.045868,257.296417 216.194626,257.458557 
	C215.150787,259.254211 216.444077,260.963135 216.492828,263.006226 
	C211.622559,260.361816 210.320053,264.953430 207.823868,267.053131 
	C205.534561,268.978790 206.239166,271.159180 207.632294,273.292236 
	C211.563690,279.311676 215.281555,285.486511 219.517380,291.283142 
	C221.178574,293.556458 222.768143,296.597321 226.039154,297.048187 
	C239.055389,298.842255 252.117111,299.701080 265.220398,298.009125 
	C272.368530,297.086121 273.848816,294.532166 270.733521,287.807007 
	C269.697266,285.569977 270.194000,284.392365 271.733398,282.956970 
	C272.644684,285.739166 274.016235,288.159210 273.684082,291.215729 
	C273.495819,292.947876 273.205383,295.640533 275.628754,296.383942 
	C277.922150,297.087494 279.535950,295.580719 281.088013,293.800018 
	C288.048615,285.814026 293.130127,276.664337 297.917450,267.318176 
	C303.347321,256.717560 303.330811,256.710236 293.196228,250.339386 
	C293.102142,250.280243 293.128571,250.029434 293.047821,249.592987 
	C294.111267,247.883667 295.368317,247.813751 296.836121,249.390503 
	C297.845398,250.474686 298.753235,251.684982 299.895142,252.604507 
	C300.909515,253.421341 302.236542,254.234024 303.488434,253.030151 
	C304.536194,252.022552 305.026611,250.305130 303.974731,249.414520 
	C300.732269,246.669235 301.703918,242.470840 300.033875,239.208954 
	C298.491333,236.196091 296.881073,233.153595 295.292755,230.226181 
	C293.402252,226.741745 292.772430,221.071701 286.660248,221.387039 
	C288.443665,216.312714 283.447113,209.210678 278.100952,208.405548 
	C278.842163,206.300003 278.037262,205.293274 275.869110,205.420288 
	C274.662598,205.490967 274.247742,206.410080 274.344269,207.465439 
	C274.597260,210.231705 276.605865,208.913803 277.635162,209.558609 
	C274.462006,213.943039 275.159393,219.364456 279.352386,222.257599 
	C279.818268,222.579025 280.567505,222.215790 280.352478,223.353378 
	C278.968384,230.676300 284.354950,235.087341 287.885437,240.233337 
	C288.871582,241.670776 290.672028,242.549957 289.920197,246.011856 
	C281.888275,236.046860 275.505707,226.261948 272.627014,213.844940 
	C263.643250,219.497406 255.868271,224.971634 248.605377,230.717529 
	C249.112915,233.037262 250.846985,231.756729 251.576660,232.601471 
	C251.143372,233.821304 250.723557,235.003204 250.281708,236.247162 
	C245.554657,233.887253 242.249466,236.925385 238.832962,239.117676 
	C234.742981,241.742142 230.807693,244.607635 226.955307,246.695541 
	C226.793640,244.771927 230.941269,244.717209 229.457947,241.513290 
	C233.588715,239.580109 235.977264,236.821960 234.398087,232.475327 
	C235.503372,233.642914 235.581314,235.645203 237.744659,236.365143 
	C247.318069,228.378357 257.500092,220.950516 268.096222,214.112686 
	C270.814423,212.358597 272.811554,210.764267 271.830658,206.992188 
	C270.826904,203.132233 267.774200,203.299835 265.136017,203.299545 
	C254.996124,203.298401 244.846832,202.781509 234.718430,204.155273 
	C231.340652,204.613419 230.065598,205.744995 230.190521,209.132156 
	C230.290497,211.842773 231.196869,213.778503 233.200958,215.617233 
	C236.501251,218.645233 240.167191,221.441711 242.840836,226.752762 
	C238.428101,223.943863 236.125580,220.437851 232.086624,218.724304 
	C231.577866,223.516769 234.319778,227.592453 233.537827,231.506805 
	C231.420990,227.480225 230.558701,223.073853 229.746460,218.669510 
	C228.869736,213.915390 225.193054,211.477493 221.357452,210.301849 
	C217.789642,209.208282 216.891113,213.461075 215.285629,215.741394 
	C209.916382,223.367493 205.513626,231.556198 201.739517,240.077026 
	C200.771561,242.262375 198.918076,244.690628 201.851517,246.720734 
	C204.768127,248.739197 206.996521,252.318726 211.758804,249.251846 
	C217.007294,245.871826 222.622986,242.801498 228.608704,242.504272 
M291.735809,320.466034 
	C298.454498,316.311340 302.349030,309.906677 306.531860,302.727356 
	C298.917511,302.101379 292.416412,300.441437 286.166748,297.733582 
	C283.505615,296.580536 281.651428,298.336639 279.548309,299.906250 
	C271.648499,305.802155 273.586426,315.534729 269.274811,323.332214 
	C277.319580,324.420380 284.159088,322.557037 291.735809,320.466034 
M205.203842,185.670853 
	C202.100891,189.661011 198.419846,193.286346 196.588531,198.701385 
	C202.684128,200.516891 208.738464,200.918335 214.073547,203.637497 
	C217.618591,205.444336 220.125244,203.994431 222.982773,201.664917 
	C230.376801,195.637192 228.631470,186.318390 233.155914,177.883789 
	C222.672485,179.152145 213.207535,178.133270 205.203842,185.670853 
M264.770996,191.735367 
	C261.139954,189.103668 257.475677,186.516190 253.889297,183.824982 
	C251.431213,181.980408 249.139069,181.960175 246.591476,183.719940 
	C241.376312,187.322342 236.507263,191.323074 232.006973,195.778412 
	C230.191147,197.576141 229.531174,199.582977 230.858398,202.148773 
	C231.988007,202.075424 232.955338,202.011490 233.922821,201.949982 
	C243.023972,201.371277 252.085739,199.896454 261.260376,201.265152 
	C264.567108,201.758469 269.329834,203.724472 270.936798,200.460922 
	C272.898956,196.475998 267.463959,194.887421 264.770996,191.735367 
M248.649307,318.700684 
	C250.492203,320.015442 252.172668,320.848297 254.455414,319.140869 
	C259.640045,315.262787 265.036713,311.673859 269.687927,307.114349 
	C271.409302,305.426910 272.793915,303.698669 272.274963,301.237762 
	C271.257202,300.035339 270.027008,300.209747 268.909576,300.327728 
	C257.318451,301.551575 245.732254,301.933960 234.133682,300.404968 
	C232.824036,300.232330 231.319321,300.174042 230.674271,301.687653 
	C229.967331,303.346527 231.060745,304.558289 232.122208,305.624115 
	C236.945236,310.467133 242.266632,314.692657 248.649307,318.700684 
M192.030411,228.684616 
	C192.902740,233.799149 192.884125,239.208801 196.903061,244.604019 
	C202.732849,231.330917 209.289978,219.757172 217.586227,207.827515 
	C210.272141,208.615143 204.905731,211.220551 199.496216,213.496048 
	C190.592102,217.241547 190.333664,217.941040 192.030411,228.684616 
M296.251251,275.661102 
	C292.455963,281.739197 288.660675,287.817291 284.510925,294.463074 
	C289.789978,293.845825 294.006348,292.276611 298.058594,290.538422 
	C313.340271,283.983398 311.444031,285.577759 309.735229,272.106201 
	C309.402100,269.479980 309.108337,266.806122 308.346680,264.290375 
	C307.741791,262.292480 308.256836,259.394745 304.727539,258.674377 
	C302.021576,264.102570 299.304626,269.552795 296.251251,275.661102 
M325.048065,277.627106 
	C317.695038,282.444580 314.002625,289.235077 313.363251,298.133118 
	C323.299164,296.766815 331.066620,285.179871 329.328674,273.787079 
	C328.016418,274.966492 326.790802,276.068054 325.048065,277.627106 
M219.393585,323.511993 
	C228.340912,329.886169 236.804718,329.937103 244.502243,323.595520 
	C239.648300,321.763733 234.813339,320.023834 230.045715,318.115692 
	C225.436417,316.270935 221.548294,317.924622 219.393585,323.511993 
M172.658844,223.286240 
	C172.759659,225.848495 173.407074,227.425247 176.146454,225.215836 
	C178.082260,223.654526 180.024261,222.100739 181.948410,220.525146 
	C187.118851,216.291428 187.450211,210.196014 189.078751,203.618958 
	C178.627411,206.647675 174.240829,213.377975 172.658844,223.286240 
M187.485580,243.270203 
	C184.364380,243.005447 183.244751,244.782562 183.403168,247.535065 
	C183.651154,251.843094 183.981995,256.150696 184.443176,260.440704 
	C184.768082,263.463013 186.323486,263.971252 188.911148,262.398682 
	C192.821121,260.022461 195.166809,253.305023 193.999756,248.419632 
	C193.229492,245.195297 191.606766,243.415054 187.485580,243.270203 
M266.847321,174.383255 
	C263.888458,175.411087 260.477234,175.537857 257.979156,178.663605 
	C260.239655,179.564484 262.063873,180.308533 263.901123,181.018921 
	C265.756287,181.736237 267.645233,182.369644 269.483124,183.127640 
	C276.670410,186.091797 277.904022,185.780792 283.249359,179.322128 
	C278.542389,175.952652 274.248871,171.738220 266.847321,174.383255 
M318.646271,255.169556 
	C318.527496,249.630173 318.121735,244.139786 316.536438,238.676773 
	C309.094971,241.919067 306.004486,248.710892 308.406097,255.025848 
	C309.495209,257.889740 311.793182,258.417938 314.343903,258.737518 
	C316.523285,259.010620 318.443115,258.881866 318.646271,255.169556 
M249.360977,167.852829 
	C246.211609,169.203522 242.901184,170.321899 240.878418,173.459747 
	C249.275177,178.904510 256.917297,178.004013 266.189362,170.377197 
	C261.012604,167.408432 255.830200,166.026901 249.360977,167.852829 
M236.065674,330.276764 
	C235.471008,330.431061 234.876343,330.585327 233.955246,330.824310 
	C244.386795,337.087738 255.919785,335.883118 261.006897,328.106049 
	C256.666626,325.738708 252.338989,324.036133 247.334641,326.045349 
	C243.793640,327.467072 240.193237,328.740753 236.065674,330.276764 
M324.271759,274.711273 
	C331.611877,267.252869 332.329865,264.486877 328.442596,257.968658 
	C325.916077,259.955841 321.458649,259.567871 320.622009,263.359619 
	C319.570526,268.125153 319.422089,273.089935 318.760956,279.083771 
	C320.987030,277.344299 322.374023,276.260468 324.271759,274.711273 
M224.418533,312.108795 
	C228.828796,307.700653 228.496445,304.457001 223.174210,299.964172 
	C219.599457,296.946503 214.440948,298.324646 210.472519,303.588593 
	C214.535141,306.977356 219.008423,309.711395 224.418533,312.108795 
M181.723160,224.090683 
	C178.618378,225.842514 176.644547,228.751083 174.289429,231.283096 
	C170.589722,235.260681 170.521576,239.361267 173.672043,244.282440 
	C176.046814,242.200974 180.461349,242.546600 180.997375,239.621796 
	C181.933899,234.511841 183.869370,229.291656 181.723160,224.090683 
M281.208679,191.514069 
	C279.896942,190.882416 278.769135,189.681305 277.110748,190.154251 
	C272.351868,197.311981 274.563660,197.870422 279.471619,202.543091 
	C282.341827,205.275681 287.478333,203.422974 291.426392,198.715424 
	C288.922729,195.463394 285.041016,194.114349 281.208679,191.514069 
M176.139816,259.389801 
	C177.494415,262.062653 177.604355,265.455475 181.515762,268.048920 
	C183.227692,259.450928 181.259918,251.882004 180.671158,244.049271 
	C173.820404,246.318787 172.651535,248.336929 174.358047,253.952316 
	C174.837997,255.531616 175.349609,257.101288 176.139816,259.389801 
M296.235474,293.721924 
	C294.317749,294.509033 292.400024,295.296143 289.810669,296.358917 
	C293.398407,298.164032 296.398895,299.074432 299.511810,299.539276 
	C308.798767,300.926147 311.493713,298.176422 310.338104,288.277893 
	C305.825470,290.016174 301.379120,291.728943 296.235474,293.721924 
M320.381042,248.211746 
	C320.878448,251.391617 320.573761,254.717087 321.816620,257.993134 
	C325.507599,256.932770 329.091095,255.499069 328.436615,251.525101 
	C327.460876,245.600815 325.472809,239.820221 322.012329,234.448196 
	C319.400970,236.201584 319.283905,238.130524 319.688202,240.416992 
	C320.089539,242.686890 320.154419,245.016281 320.381042,248.211746 
M210.133530,206.540848 
	C211.321808,205.277313 210.201706,204.764954 209.313187,204.461365 
	C206.168198,203.386780 202.984406,202.445908 199.620697,202.302475 
	C192.660385,202.005661 189.772537,206.308044 192.445526,213.416092 
	C198.158249,211.217819 203.872055,209.019135 210.133530,206.540848 
M286.394623,182.481201 
	C283.630096,183.142670 281.027313,184.039749 279.479523,187.130646 
	C284.617493,190.499146 289.576202,193.762451 294.550507,197.001816 
	C295.661194,197.725082 296.780426,197.598557 297.764221,196.727036 
	C299.210388,195.445908 298.236206,194.285645 297.434448,193.256287 
	C294.372742,189.325500 291.427429,185.269699 286.394623,182.481201 
M303.526764,215.680267 
	C304.294922,215.484833 305.197144,215.506653 305.641418,213.837982 
	C298.941406,210.806717 292.080200,208.194717 284.108856,206.701614 
	C288.524353,217.748489 290.663635,218.916367 300.447144,216.426773 
	C301.252167,216.221909 302.052643,215.999161 303.526764,215.680267 
M218.948181,312.499176 
	C213.720871,310.744476 210.451950,304.312134 203.179840,305.361877 
	C204.939377,310.276306 208.160782,312.985657 210.950333,315.944275 
	C215.501907,320.771698 217.613464,320.605530 222.244598,315.480255 
	C222.079361,313.858490 220.578690,313.596924 218.948181,312.499176 
M307.864532,239.034790 
	C309.105804,233.413193 310.596741,227.816422 310.264404,220.502243 
	C307.515289,223.634125 306.035553,225.911423 304.015289,227.502167 
	C299.355255,231.171417 299.845123,235.087189 302.457214,239.668396 
	C304.379913,243.040512 305.868683,242.820755 307.864532,239.034790 
M209.350235,293.007690 
	C212.106232,293.923035 214.786865,295.229645 217.972168,294.943756 
	C212.634460,283.397827 207.268494,281.550079 197.272278,287.838470 
	C200.575027,290.813141 204.796463,291.346100 209.350235,293.007690 
M193.937332,278.826538 
	C195.151535,277.469360 196.379135,276.123871 197.577591,274.752960 
	C202.918732,268.643066 202.891418,266.677368 197.397339,260.035522 
	C195.908997,260.137512 194.871429,260.919403 194.455368,262.310486 
	C192.881775,267.571472 192.029724,272.950378 192.121399,278.451965 
	C192.134415,279.233307 192.680008,279.592072 193.937332,278.826538 
M190.063614,232.109482 
	C189.451859,228.456879 189.480438,224.673752 187.813171,220.195450 
	C185.318085,225.358643 184.706314,230.025421 184.392975,234.683090 
	C183.993820,240.616196 184.975540,241.356537 191.455338,240.664886 
	C191.068985,238.084030 190.683380,235.508148 190.063614,232.109482 
M245.326782,181.305847 
	C246.897354,178.870346 244.507507,178.639313 243.411240,178.582626 
	C240.589874,178.436722 237.228760,176.935883 235.199982,180.177551 
	C232.957108,183.761322 231.347717,187.646805 231.185318,192.603149 
	C236.094955,188.698044 240.477081,185.212509 245.326782,181.305847 
M313.290710,261.033295 
	C311.787781,260.721863 310.319489,260.947815 310.617462,262.811035 
	C311.569611,268.764038 312.754639,274.679779 313.849731,280.609924 
	C316.641571,275.475830 317.706055,270.243958 317.736816,264.767792 
	C317.751770,262.114471 316.233185,261.336578 313.290710,261.033295 
M295.524841,219.510895 
	C293.886780,220.191467 293.094910,221.275879 294.111725,222.976761 
	C295.520081,225.332550 296.169250,228.174210 298.413513,230.022141 
	C303.350403,225.850815 306.250916,221.742630 307.002472,217.581528 
	C303.325104,218.189362 299.791718,218.773407 295.524841,219.510895 
M258.038788,323.291443 
	C266.568756,324.319366 270.541229,320.093994 270.448730,310.087860 
	C266.293030,313.316895 262.108826,316.510345 258.002136,319.800568 
	C257.005402,320.599182 254.952988,321.500305 258.038788,323.291443 
M207.031631,277.406250 
	C205.925522,275.830170 205.560410,273.670654 202.963440,272.615265 
	C199.832397,275.821014 196.438232,278.945526 194.526535,283.905182 
	C199.139435,284.428955 202.732224,283.075409 206.360779,282.216095 
	C209.095383,281.568512 208.387009,279.740021 207.031631,277.406250 
M210.329956,257.159332 
	C206.707886,252.367935 203.828751,255.980804 200.558975,257.893707 
	C201.285324,261.126221 202.256775,264.018768 205.203369,267.063873 
	C206.752930,263.419037 212.675568,263.340698 210.329956,257.159332 
M235.001114,317.501801 
	C237.794937,318.383514 240.469421,320.019409 244.727127,319.426605 
	C239.218063,314.967377 234.680008,311.294098 230.062729,307.556702 
	C226.616684,313.945923 226.650925,314.014587 235.001114,317.501801 
M261.620819,186.034409 
	C265.002289,188.838928 268.383759,191.643448 272.947845,195.428787 
	C272.387878,191.724579 276.373688,189.426575 272.594177,187.266098 
	C268.337677,184.832916 263.734528,182.994644 258.809967,182.338196 
	C258.424133,182.784515 258.038330,183.230850 257.652496,183.677170 
	C258.807770,184.322845 259.963074,184.968521 261.620819,186.034409 
M259.812592,333.770233 
	C259.365997,334.152924 258.919434,334.535614 257.624237,335.645569 
	C263.934967,335.381622 268.927094,334.595428 273.975800,331.707886 
	C268.613922,329.140900 264.135315,328.902344 259.812592,333.770233 
M238.916824,167.091492 
	C235.251175,167.463745 231.540848,167.707474 227.949844,170.831604 
	C232.897827,171.779251 237.101562,174.326569 240.827972,169.640381 
	C242.366074,167.706116 241.822540,167.077484 238.916824,167.091492 
M297.009979,202.643326 
	C293.232452,201.421936 292.915710,201.518082 289.634491,204.997314 
	C293.670349,206.300049 297.310669,208.632355 302.232239,208.685410 
	C301.350525,205.645721 299.250183,204.510284 297.009979,202.643326 
M319.383606,299.271332 
	C314.200043,301.007385 309.646301,303.290039 310.037201,309.983337 
	C315.159027,307.429230 319.487366,302.571350 319.383606,299.271332 
M203.249420,293.838623 
	C202.326736,293.531250 201.410782,292.993103 200.450012,293.741974 
	C203.619766,300.809204 207.362885,302.116028 211.904633,297.563538 
	C211.407883,297.148254 210.986954,296.581757 210.430771,296.369324 
	C208.275650,295.546204 206.077499,294.835785 203.249420,293.838623 
M322.405304,205.502502 
	C320.109985,202.481949 319.126343,204.579666 318.692413,206.665390 
	C318.033783,209.831192 321.985352,213.358582 325.968140,213.139435 
	C325.539764,210.443939 324.042267,208.293854 322.405304,205.502502 
M183.254562,200.331787 
	C182.831223,201.264862 182.338058,202.423889 183.936249,202.487305 
	C188.443756,202.666138 191.485367,198.664124 190.411072,193.842880 
	C186.987534,194.557114 185.604309,197.560577 183.254562,200.331787 
M181.477005,297.930054 
	C184.577637,296.053711 183.207855,293.833435 181.989380,291.594543 
	C180.830444,289.465027 179.559967,287.645721 176.220856,288.970917 
	C177.084015,292.450470 178.682800,295.240631 181.477005,297.930054 
M272.658966,326.408691 
	C271.975342,326.588287 270.971100,326.135345 270.743195,327.560577 
	C276.332031,328.874512 281.808380,330.067017 286.673950,325.044434 
	C282.094269,325.509216 277.739655,325.951172 272.658966,326.408691 
M226.208557,173.442261 
	C223.124542,173.508163 219.683167,172.595154 217.466492,176.886444 
	C223.097244,176.272263 228.037750,174.359741 233.265335,174.725342 
	C231.185410,174.317215 229.105499,173.909103 226.208557,173.442261 
M188.084473,265.120331 
	C184.595154,268.306061 186.919052,271.307953 188.338150,275.414154 
	C189.802948,271.734131 190.622131,268.957245 190.738678,265.985291 
	C190.807083,264.241425 190.010452,263.953522 188.084473,265.120331 
M311.625885,232.926559 
	C311.548767,234.323257 310.697449,235.832825 312.155579,237.032837 
	C316.772217,234.392502 317.023621,231.994095 313.179443,227.546997 
	C311.909943,228.877823 312.445068,230.726501 311.625885,232.926559 
M204.974503,313.355682 
	C202.815109,311.389343 201.835159,307.953735 197.010559,307.440460 
	C200.218201,311.793213 202.991150,314.984009 207.408554,316.592590 
	C206.742813,315.678711 206.077087,314.764862 204.974503,313.355682 
M203.233200,250.772171 
	C201.923615,249.913177 201.005676,248.212601 198.841965,248.797119 
	C197.607971,250.981049 197.784851,252.991653 199.966858,255.626190 
	C200.746994,253.376740 204.414795,254.744644 203.233200,250.772171 
M299.579926,191.838196 
	C300.708221,192.766602 301.350189,194.657440 303.970093,193.849930 
	C301.417542,190.093796 298.731964,187.139969 294.611023,185.585999 
	C296.117950,187.501312 297.624878,189.416626 299.579926,191.838196 
M189.367737,302.879150 
	C188.206833,301.674530 187.799118,299.510040 185.476715,299.740997 
	C184.562225,302.991608 185.927124,305.609955 188.601120,305.696075 
	C190.499771,305.757233 190.266678,304.633545 189.367737,302.879150 
M176.479752,281.083344 
	C175.744751,280.111237 175.832291,278.434570 173.768860,278.247253 
	C172.444229,279.990356 171.674423,281.783783 173.602631,283.756958 
	C174.452667,284.626801 175.606857,285.134888 176.698273,284.359924 
	C177.739777,283.620422 177.006332,282.582581 176.479752,281.083344 
M325.500031,233.708084 
	C326.650848,236.624420 327.801666,239.540756 328.952484,242.457092 
	C329.655853,239.041183 328.772675,236.115250 327.493683,233.307785 
	C327.030731,232.291595 326.306854,231.054398 325.500031,233.708084 
M222.923645,207.889130 
	C224.393661,209.107147 225.699478,210.603531 228.254669,210.960114 
	C227.629791,208.928772 228.507294,206.617310 226.190872,205.659668 
	C224.787231,205.079376 223.223206,205.412598 222.923645,207.889130 
M325.700989,220.760696 
	C326.511292,221.583130 326.649872,223.645966 328.497681,222.589188 
	C329.563110,221.979858 329.852173,220.756042 329.235046,219.556747 
	C328.579681,218.283157 327.380829,217.429504 326.071014,217.577347 
	C324.075470,217.802597 325.333191,219.245850 325.700989,220.760696 
M314.633392,201.300293 
	C316.242645,202.460526 317.280090,201.800156 317.118896,200.074646 
	C316.884674,197.567780 315.209106,196.577454 312.774963,196.852066 
	C311.991425,198.856308 313.316437,199.788910 314.633392,201.300293 
M193.733459,302.783417 
	C194.315842,303.707336 195.359604,305.443268 196.087509,303.979187 
	C197.367783,301.404144 195.096558,299.778656 192.627884,297.275269 
	C193.070023,299.687439 193.298416,300.933502 193.733459,302.783417 
z"/>
<path fill="#000000" opacity="1.000000" stroke="none" 
	d="
M278.445801,421.359711 
	C282.947845,420.443268 287.193665,420.082947 291.069550,418.691925 
	C298.432190,416.049591 305.121613,417.549286 311.776459,420.763977 
	C313.156281,421.430481 314.589661,421.977844 314.708191,423.790649 
	C314.832642,425.694427 313.701691,426.834595 312.232605,427.813354 
	C289.459015,442.985596 264.431396,447.387085 237.822311,442.550385 
	C227.467041,440.668091 216.817307,440.954346 206.685455,438.217834 
	C191.064453,433.998810 175.926270,428.460693 162.843597,418.471497 
	C161.668442,417.574188 160.355209,416.592194 158.965408,416.284058 
	C148.908981,414.054321 141.720001,407.212372 134.278503,400.899078 
	C130.549225,397.735260 126.021927,395.945374 122.298218,392.805115 
	C111.576492,383.763336 103.329445,372.906097 97.407562,360.222687 
	C96.710602,358.729919 95.702881,357.372986 94.765915,356.003235 
	C91.543915,351.292999 88.992249,346.487976 88.511169,340.495422 
	C88.158340,336.100586 86.346634,331.799988 85.000160,327.515564 
	C84.050522,324.493835 83.838058,321.626282 85.650742,318.888123 
	C86.958008,316.913422 86.824554,314.837158 86.461349,312.636230 
	C86.084641,310.353455 85.731216,307.961914 88.387375,306.356873 
	C91.488106,307.530640 91.952377,310.595337 92.923721,313.076324 
	C101.468552,334.901093 113.498589,354.490509 129.782990,371.421661 
	C155.945923,398.623688 187.628601,415.359283 224.827454,421.665344 
	C242.569183,424.672974 260.302551,424.421875 278.445801,421.359711 
z"/>
<path fill="#000000" opacity="1.000000" stroke="none" 
	d="
M322.637207,94.380226 
	C302.704956,85.246483 282.556244,78.154846 260.007568,77.523636 
	C261.837494,72.788979 264.684418,71.429688 267.321167,72.267616 
	C277.441193,75.483643 287.975891,73.447327 298.181641,75.233376 
	C302.098724,75.918892 306.238800,75.507645 310.078857,76.425926 
	C328.106506,80.736908 345.112274,86.770264 359.506622,99.563255 
	C368.674438,107.711143 378.533600,115.120766 387.435425,123.666695 
	C392.701324,128.722046 396.192719,134.956482 400.399353,140.719727 
	C408.552979,151.890549 416.018555,163.436569 421.240509,176.369843 
	C424.288971,183.919968 423.546936,190.623230 418.769287,197.034256 
	C415.325378,201.655518 413.397522,201.535156 411.392609,196.166214 
	C407.602417,186.016525 403.562195,176.004669 398.322144,166.491165 
	C380.751434,134.591003 355.729706,110.523315 322.637207,94.380226 
z"/>
<path fill="#000000" opacity="1.000000" stroke="none" 
	d="
M383.575684,159.489380 
	C391.815460,172.641006 399.461517,185.661179 401.995178,201.669876 
	C388.808044,195.372940 382.543030,183.865601 376.040680,172.584763 
	C375.044708,170.856873 374.384521,168.929062 373.332550,167.241089 
	C370.908936,163.352249 367.890442,161.199432 362.924500,163.166809 
	C355.629578,166.056946 348.779755,163.630447 342.300995,160.361359 
	C338.166321,158.275085 338.104370,156.128311 340.880493,152.432892 
	C342.496063,150.282349 345.946930,148.719452 344.956970,145.521347 
	C343.122589,139.595337 344.876953,132.770645 338.556305,127.892273 
	C329.324341,120.766884 320.086578,114.855995 307.810883,116.071411 
	C305.220398,116.327888 303.015167,114.945526 300.871674,113.597305 
	C293.810211,109.155807 286.601959,105.083679 278.384277,103.013245 
	C273.447266,101.769348 268.472748,103.191841 263.509583,102.104492 
	C258.265747,100.955650 254.216934,98.817261 252.028397,93.667107 
	C250.503021,90.077530 251.290695,88.249557 255.291016,87.962090 
	C258.762909,87.712601 262.294647,87.789543 265.765167,88.104897 
	C306.222260,91.780983 339.894623,109.382042 367.643372,138.567795 
	C373.566315,144.797470 378.812408,151.794174 383.575684,159.489380 
M346.651367,157.943542 
	C348.654327,159.874557 351.099274,160.651688 353.826874,160.707321 
	C355.870758,160.748993 356.883606,159.804962 356.782776,157.717758 
	C356.662476,155.227325 349.497833,149.150375 347.133881,149.548386 
	C346.010101,149.737579 345.582428,150.616241 345.106934,151.496292 
	C343.882935,153.761688 344.861908,155.603638 346.651367,157.943542 
z"/>
<path fill="#000000" opacity="1.000000" stroke="none" 
	d="
M132.790466,103.822433 
	C143.572830,93.734940 157.615402,91.408951 170.231339,86.022713 
	C176.485703,83.352478 182.717682,82.891907 189.160461,84.540695 
	C191.573639,85.158249 193.428391,82.482986 195.796082,83.650909 
	C196.506668,85.361885 195.210342,85.737434 194.217926,86.245750 
	C180.166931,93.442757 165.868332,100.219078 153.124191,109.690231 
	C113.354637,139.246094 90.523262,178.847229 83.278244,227.671646 
	C82.398750,233.598602 82.357132,233.592422 80.099709,236.504700 
	C77.123505,234.272873 74.840698,231.632874 73.921181,227.912689 
	C72.664009,222.826370 72.592590,217.658463 73.098579,212.510101 
	C73.453995,208.893738 75.086777,206.017334 78.573318,204.121765 
	C81.952599,202.284531 83.903305,199.214417 83.909195,195.131836 
	C83.935692,176.759079 87.803726,159.527008 99.002068,144.471344 
	C99.790085,143.411911 100.565750,142.232635 100.931488,140.987015 
	C104.227783,129.760803 112.403236,122.053650 120.283005,114.178307 
	C124.025352,110.438057 127.388557,106.160599 132.790466,103.822433 
z"/>
<path fill="#000000" opacity="1.000000" stroke="none" 
	d="
M270.080200,413.291992 
	C224.037811,418.314362 183.479111,406.341217 148.474274,376.665283 
	C129.488144,360.569519 114.736122,341.217377 105.386795,317.003906 
	C109.077744,317.374390 110.308632,319.656921 112.081596,320.911957 
	C125.026894,330.075378 137.042969,340.019287 146.348495,353.323639 
	C151.097168,360.112976 157.389206,366.074921 162.910080,372.485046 
	C166.908447,377.127411 172.456070,379.606781 178.569870,380.673431 
	C185.515610,381.885162 191.785446,385.184998 198.386856,387.444641 
	C202.491959,388.849762 204.452072,393.049103 205.818008,397.046753 
	C207.184418,401.045807 209.846970,402.297516 213.888504,403.191589 
	C222.689072,405.138519 231.674881,405.473053 240.474152,407.134186 
	C244.127457,407.823883 247.780609,408.126465 251.406998,407.771179 
	C260.245056,406.905273 269.027618,408.257111 277.840698,408.133118 
	C279.378235,408.111511 281.251770,407.727142 282.205872,410.081116 
	C278.747681,412.805328 274.482239,412.519318 270.080200,413.291992 
z"/>
<path fill="#000000" opacity="1.000000" stroke="none" 
	d="
M96.531662,207.677979 
	C109.836456,152.916672 157.428558,110.677498 181.777679,105.379494 
	C179.800140,109.740944 177.445114,113.209602 174.909164,116.557564 
	C174.010635,117.743782 172.483215,118.558083 171.873154,119.841713 
	C167.231812,129.607422 159.678497,136.536224 151.004639,142.685181 
	C147.340714,145.282578 147.096344,154.285248 149.707031,158.042755 
	C151.652649,160.843048 153.868790,159.913818 156.204880,158.486282 
	C159.495422,156.475494 160.271362,152.664215 162.307648,149.627274 
	C162.758728,150.173111 163.079315,150.385513 163.133652,150.652176 
	C165.039749,160.007431 165.064453,160.114944 155.895645,162.539536 
	C151.604233,163.674362 147.661819,166.206573 143.091934,165.994934 
	C142.802185,165.617813 142.449219,165.371994 142.449234,165.126190 
	C142.449402,161.812805 141.970306,158.222427 138.337997,157.529846 
	C134.541397,156.805923 133.626526,160.685272 132.577011,163.340988 
	C126.679817,178.263367 119.141212,192.262711 110.360931,205.704178 
	C106.548256,211.540878 101.157707,214.937424 95.534218,219.174225 
	C94.183945,214.970963 95.657463,211.546249 96.531662,207.677979 
z"/>
<path fill="#000000" opacity="1.000000" stroke="none" 
	d="
M279.815857,133.020569 
	C275.397858,134.043808 274.935120,138.104309 273.177246,141.122070 
	C271.783203,143.515244 271.144928,146.437042 267.909821,147.804367 
	C263.096039,144.152298 263.434540,136.872467 258.477783,133.209778 
	C254.996597,137.446564 255.260239,142.369446 258.998047,148.267822 
	C254.986374,149.788177 254.426376,149.766479 250.479507,147.963501 
	C253.598358,138.716293 253.971329,129.365738 251.949799,119.817123 
	C257.105255,118.032120 260.070007,119.135696 262.507782,123.966057 
	C263.857574,126.640579 265.014374,129.419312 266.475800,132.029175 
	C269.186218,136.869431 271.444305,136.906647 274.266876,132.257278 
	C275.475342,130.266663 276.540070,128.189362 277.719543,126.180458 
	C281.278717,120.118332 282.340973,119.701744 290.123871,121.366577 
	C287.114014,130.587845 287.670166,139.968079 288.815796,149.735779 
	C285.323761,151.929565 281.567474,151.257614 277.379395,149.741211 
	C280.439880,144.452332 281.870880,139.053391 279.815857,133.020569 
z"/>
<path fill="#000000" opacity="1.000000" stroke="none" 
	d="
M196.053421,372.996155 
	C192.421509,370.402557 193.365723,366.590729 192.700836,363.317719 
	C192.023697,359.984406 192.336655,356.354584 189.441986,353.565979 
	C186.023453,355.065613 185.554199,358.481201 184.041031,361.094849 
	C183.042816,362.818970 182.294952,364.687317 181.420837,366.484222 
	C180.550812,368.272675 179.873444,370.381104 177.283600,370.106506 
	C174.682785,369.830719 173.821274,368.071045 173.463226,365.643921 
	C172.638947,360.056152 171.480072,354.517273 170.679169,348.926727 
	C170.208786,345.643433 169.052750,342.550873 168.112274,339.399292 
	C171.843277,337.734283 174.892456,339.707489 178.473877,339.956177 
	C176.374283,346.714813 176.357056,353.047668 179.516190,359.581665 
	C182.626114,358.060028 183.384171,355.424286 184.530869,353.141998 
	C185.875961,350.464752 187.061035,347.707550 188.378204,345.015717 
	C189.299118,343.133667 190.383041,341.622131 192.990021,342.285126 
	C195.303009,342.873322 196.072968,344.195648 196.448776,346.468018 
	C197.389908,352.158691 196.930618,358.102844 199.805252,364.869446 
	C203.634766,358.228912 208.656021,353.250824 206.262405,345.478729 
	C209.383255,343.863281 211.904709,345.389282 215.206894,346.492188 
	C208.886169,354.200531 204.921112,362.961548 200.225479,371.305359 
	C199.417801,372.740479 198.138229,373.410614 196.053421,372.996155 
z"/>
<path fill="#000000" opacity="1.000000" stroke="none" 
	d="
M288.327576,351.129578 
	C287.698425,355.308685 287.551239,358.526825 290.392456,362.063599 
	C293.954102,366.497192 291.052307,372.221497 285.075195,373.967407 
	C279.309082,375.651703 273.304108,375.301849 267.295715,376.130524 
	C269.141418,366.014435 268.345428,356.549683 264.859406,346.765045 
	C271.413452,345.034180 278.120850,345.189911 284.794434,346.285370 
	C286.804840,346.615387 288.046814,348.496765 288.327576,351.129578 
M275.290314,371.684143 
	C277.043884,373.025360 278.847229,372.033508 280.520996,371.610474 
	C283.656616,370.817993 285.428192,368.623657 284.815826,365.364899 
	C284.044037,361.257935 280.645782,361.242371 277.400360,361.293701 
	C273.407227,361.356903 274.207153,364.278809 274.296417,366.672119 
	C274.351318,368.144897 274.660675,369.608154 275.290314,371.684143 
M281.643738,351.835022 
	C280.600708,348.740753 278.220642,348.060272 275.342529,348.447968 
	C273.036987,348.758606 273.067902,350.547241 273.296539,352.223236 
	C273.590271,354.376465 272.975281,357.362640 276.264954,357.587006 
	C279.537354,357.810120 281.469116,355.938202 281.643738,351.835022 
z"/>
<path fill="#000000" opacity="1.000000" stroke="none" 
	d="
M315.192505,145.881729 
	C307.808929,145.409729 306.652222,146.588913 308.278778,152.712158 
	C305.074432,154.903580 302.411865,152.814453 299.397949,151.716522 
	C304.639282,143.072433 312.503174,136.066055 313.634033,125.199684 
	C319.028656,122.803452 322.801880,125.653397 323.644684,131.077545 
	C324.966553,139.584671 325.939453,148.185577 329.383606,156.493042 
	C325.521912,158.408859 322.294189,157.019989 318.754944,155.208679 
	C319.832520,151.422470 320.560486,147.607330 315.192505,145.881729 
M312.876129,142.150848 
	C314.993439,142.833603 317.182434,143.534149 317.878479,140.396011 
	C318.201691,138.938766 318.072571,137.409882 316.772552,136.349487 
	C315.966614,135.692093 314.878906,135.309692 314.127777,136.208008 
	C312.819946,137.772110 311.035339,139.297852 312.876129,142.150848 
z"/>
<path fill="#000000" opacity="1.000000" stroke="none" 
	d="
M217.664810,143.631393 
	C215.217697,146.113220 217.418320,148.159073 217.837524,150.347916 
	C215.017181,152.559586 212.252670,151.804245 209.464386,150.783386 
	C212.302460,141.122726 217.816360,132.341507 217.139084,121.685860 
	C222.683273,119.471832 224.411362,120.118263 227.195389,125.611404 
	C231.076248,133.268753 234.354889,141.238632 239.510880,148.602585 
	C235.892120,150.195633 232.575546,150.557693 229.132217,149.973099 
	C227.880905,141.498657 224.284378,139.424011 217.664810,143.631393 
M218.781326,137.673737 
	C220.435211,139.019806 222.173477,138.818680 223.779877,137.716522 
	C224.945709,136.916626 224.608734,135.687729 224.132675,134.588943 
	C223.517548,133.169220 222.576233,131.665192 220.941223,131.985336 
	C218.206207,132.520874 218.286362,134.873276 218.781326,137.673737 
z"/>
<path fill="#000000" opacity="1.000000" stroke="none" 
	d="
M242.036987,349.814728 
	C239.198425,349.295258 236.515701,348.726471 235.089111,351.539917 
	C234.002975,353.681976 233.558792,356.484985 235.630325,358.003021 
	C238.949371,360.435272 240.324188,356.492035 242.806305,354.814514 
	C243.657730,359.070892 243.697311,363.022217 242.888077,367.506470 
	C242.075058,366.800415 241.555557,366.455811 241.171967,365.997437 
	C239.635971,364.161987 237.959717,362.000519 235.419937,363.918640 
	C233.266373,365.545135 232.985367,368.262085 233.810745,370.771210 
	C234.723969,373.547333 237.008148,373.661194 239.538361,373.319611 
	C243.818268,372.741821 246.739304,370.219727 249.097839,366.571228 
	C251.467377,373.183472 249.371414,376.508057 243.145050,376.323181 
	C237.436127,376.153656 231.664337,376.785492 225.804977,375.805298 
	C228.517212,369.269989 228.834076,352.135162 226.535614,347.252838 
	C227.708206,345.446655 229.467926,346.248016 231.037415,346.290222 
	C235.353058,346.406281 239.667023,346.606384 243.983215,346.675873 
	C250.664200,346.783508 251.619232,348.281586 249.179657,355.564667 
	C246.741974,353.790558 245.314255,350.884796 242.036987,349.814728 
z"/>
<path fill="#000000" opacity="1.000000" stroke="none" 
	d="
M309.505219,349.610565 
	C312.126862,351.320190 314.715179,351.744720 317.427032,351.679138 
	C320.320251,351.609161 323.095428,352.304352 325.555664,353.711670 
	C330.533081,356.558868 330.587555,363.544769 325.530518,367.070251 
	C320.030029,370.904968 313.691986,371.042145 307.307953,370.243408 
	C305.701965,370.042480 304.476135,369.123596 304.666412,367.233887 
	C304.925629,364.659241 305.537109,362.193695 306.997192,359.449860 
	C310.563812,367.856842 314.801605,369.627899 321.329773,366.041016 
	C322.840271,365.211060 324.252106,364.230713 324.161499,362.296906 
	C324.073761,360.424896 322.733948,359.425201 321.161865,358.640625 
	C319.009705,357.566650 316.721863,357.380554 314.373962,357.299530 
	C311.888794,357.213776 309.368469,357.200653 307.076569,355.973267 
	C304.393005,354.536102 302.773132,352.475708 302.638000,349.280487 
	C302.503326,346.095795 303.825226,343.770905 306.473450,342.242523 
	C310.986420,339.637939 315.952820,339.060150 320.966156,339.951660 
	C325.388977,340.738190 325.514587,344.559448 321.453827,350.001587 
	C318.996887,343.570251 316.240723,341.754974 311.454315,343.628326 
	C308.783539,344.673615 307.180206,346.367493 309.505219,349.610565 
z"/>
<path fill="#000000" opacity="1.000000" stroke="none" 
	d="
M176.924744,155.304016 
	C178.691559,147.757706 175.862457,141.243286 173.882614,134.628464 
	C173.270782,132.584274 172.154282,130.691132 171.274139,128.740555 
	C174.315018,125.532982 177.782074,125.514015 181.658401,126.428810 
	C180.795593,132.914749 182.077393,139.081329 183.365051,145.233536 
	C183.907867,147.826996 184.426346,150.814713 187.489822,151.498352 
	C190.652435,152.204132 192.794876,149.952194 194.602539,147.719803 
	C195.803970,146.236053 196.700073,144.505051 197.804626,142.772079 
	C201.392059,150.188354 199.705368,153.706497 192.292343,154.513275 
	C188.959396,154.876007 185.803833,155.845749 182.583099,156.659271 
	C180.802078,157.109131 178.332901,158.336441 176.924744,155.304016 
z"/>
<path fill="#000000" opacity="1.000000" stroke="none" 
	d="
M339.562195,386.453674 
	C338.018555,387.228210 336.756714,387.818909 334.814423,388.728210 
	C338.583191,383.089844 340.829742,381.437866 345.302795,380.840118 
	C344.407440,383.782440 341.632996,384.558899 339.562195,386.453674 
z"/>
<path fill="#000000" opacity="1.000000" stroke="none" 
	d="
M270.830383,259.628418 
	C269.904205,264.598022 265.913422,265.421478 261.741119,266.016968 
	C263.826050,262.711456 266.827728,260.620728 270.830383,259.628418 
z"/>
</svg>